<svg id="Camada_1" data-name="Camada 1" xmlns="http://www.w3.org/2000/svg" viewBox="0 0 90 70"><defs><style>.cls-1{fill:#ee9b00;}.cls-2{fill:#fff;}.cls-3{fill:#005f73;}.cls-4{fill:#0a9396;}.cls-5{fill:#94d2bd;}.cls-6{fill:#e9d8a6;}</style></defs><path class="cls-1" d="M18.76,53.13c5.45-3.07,14-3.17,15.47.55,1.49,4.09-3.56,8.23-6.9,12.32-1.49,1.12-5.74-.79-8.35.7,0,0,8.42,3.6,8.79,3.23l40-35.15A35.83,35.83,0,1,0,5.05,69.34,32.56,32.56,0,0,1,18.76,53.13Z"/><polygon class="cls-2" points="66.85 31.23 33.71 56.05 62.45 32.08 66.85 31.23"/><path class="cls-2" d="M46.32,40.08,36,42.66a6.36,6.36,0,0,1-1.56.2H23.22l-9,7.35H12l7.42-7.35a6.15,6.15,0,0,1-1.88-.15c-1.75-.48-2.27-2.76.86-4.06-1.3-1-8.27-6.68-8.27-6.68l1.48.39,11.48,5.2,25.7-.09Z"/><path class="cls-3" d="M35.19,69.92,70,39.7c-.3-.88-.63-1.74-1-2.59L31.22,69.92Z"/><path class="cls-4" d="M42.74,69.92,71.37,45.08c-.17-1-.37-2-.62-2.91l-32,27.75Z"/><path class="cls-5" d="M50.29,69.92,71.88,51.19v0q0-1.65-.15-3.27L46.32,69.92Z"/><path class="cls-6" d="M57.85,69.92l13.3-11.55a34.31,34.31,0,0,0,.58-3.94L53.87,69.92Z"/><path class="cls-1" d="M65.4,69.92l2.32-2a35,35,0,0,0,2.35-5.48l-8.64,7.5Z"/><path class="cls-2" d="M55.23,23.37a23.71,23.71,0,0,0-3.18-1.71c-.54-.26-1.1-.48-1.66-.7s-1.13-.41-1.7-.61a34.48,34.48,0,0,0-7-1.52,39.93,39.93,0,0,0-7.17-.12,35.12,35.12,0,0,0-7,1.27,34.58,34.58,0,0,0-3.4,1.11c-.55.22-1.1.48-1.64.71l-.82.37-.8.42L20,23c-.27.14-.53.28-.78.44l-1.53.94c-1,.69-2,1.35-2.91,2.11a34.35,34.35,0,0,0-5.16,5,23.75,23.75,0,0,0-3.85,6.07A17.55,17.55,0,0,1,7.3,34.27a27.9,27.9,0,0,1,2-3,35.25,35.25,0,0,1,5.08-5.21,32.19,32.19,0,0,1,2.91-2.2l1.55-1a9,9,0,0,1,.79-.46l.81-.43.8-.44.84-.38c.55-.24,1.1-.51,1.67-.74a36.09,36.09,0,0,1,3.46-1.17,36.54,36.54,0,0,1,14.49-1A33.52,33.52,0,0,1,48.81,20c.56.23,1.13.45,1.69.69s1.1.49,1.64.78A20.27,20.27,0,0,1,55.23,23.37Z"/><path class="cls-4" d="M88.1,17.88c-4.76-2.09-9.68-1.77-17.51,1.09-1.42.51-3.78,1.39-6.71,2.48L63.47,3.1,56.25,0,55.08.66,60.58,4,54.82,24.85c-11.76,4.4-24.57,9.22-28.09,10.55l-.16-.07-.75-5.93-2,.89L23,33.83,11.1,28.75,7.46,29.89l11.61,8.86c-3.5,1.14-2.59,3.09-1.61,3.48a5.84,5.84,0,0,0,1.38.14L12,49.75h2.1l9-7.31c5.09,0,12-.26,13.34-.67,1.63-.48,3.31-.68,9.79-2.81L28.52,58,22.87,56.3l-1.78.56,5.6,2.89,3.83-1.2L63.21,33c10.39-3.84,20.25-7.49,23.14-9.36C89.6,21.49,91,19.46,88.1,17.88Z"/><path class="cls-2" d="M75.37,24.61h0a.23.23,0,0,1-.27-.14L74.93,24a.21.21,0,0,1,.14-.27h0a.21.21,0,0,1,.27.13l.17.51A.22.22,0,0,1,75.37,24.61Z"/><path class="cls-2" d="M74.52,24.89h0a.21.21,0,0,1-.27-.14l-.17-.51a.21.21,0,0,1,.13-.27h0a.22.22,0,0,1,.28.14l.17.51A.22.22,0,0,1,74.52,24.89Z"/><path class="cls-2" d="M73.67,25.17h0A.21.21,0,0,1,73.4,25l-.17-.51a.22.22,0,0,1,.13-.28h0a.23.23,0,0,1,.28.14l.17.51A.22.22,0,0,1,73.67,25.17Z"/><path class="cls-2" d="M72.82,25.46h0a.24.24,0,0,1-.28-.14l-.17-.51a.22.22,0,0,1,.14-.27h0a.22.22,0,0,1,.28.13l.17.51A.23.23,0,0,1,72.82,25.46Z"/><path class="cls-2" d="M72,25.74h0a.22.22,0,0,1-.28-.14l-.17-.51a.23.23,0,0,1,.14-.27h0a.21.21,0,0,1,.27.14l.17.51A.21.21,0,0,1,72,25.74Z"/><path class="cls-2" d="M71.12,26h0a.22.22,0,0,1-.28-.13l-.17-.51a.22.22,0,0,1,.14-.28h0a.22.22,0,0,1,.27.14l.17.51A.21.21,0,0,1,71.12,26Z"/><path class="cls-2" d="M70.26,26.31h0a.23.23,0,0,1-.27-.14l-.17-.51a.21.21,0,0,1,.14-.27h0a.21.21,0,0,1,.27.13l.17.51A.22.22,0,0,1,70.26,26.31Z"/><path class="cls-2" d="M69.41,26.59h0a.21.21,0,0,1-.27-.14L69,25.94a.21.21,0,0,1,.14-.27h0a.21.21,0,0,1,.27.14l.17.51A.21.21,0,0,1,69.41,26.59Z"/><path class="cls-2" d="M68.56,26.87h0a.21.21,0,0,1-.27-.13l-.17-.51a.22.22,0,0,1,.14-.28h0a.23.23,0,0,1,.27.14l.17.51A.21.21,0,0,1,68.56,26.87Z"/><path class="cls-2" d="M67.71,27.16h0a.22.22,0,0,1-.27-.14l-.17-.51a.21.21,0,0,1,.13-.27h0a.22.22,0,0,1,.28.13l.17.51A.22.22,0,0,1,67.71,27.16Z"/><path class="cls-2" d="M66.86,27.44h0a.21.21,0,0,1-.27-.14l-.17-.51a.21.21,0,0,1,.13-.27h0a.22.22,0,0,1,.28.14l.17.51A.23.23,0,0,1,66.86,27.44Z"/><path class="cls-2" d="M66,27.72h0a.22.22,0,0,1-.28-.13l-.16-.51a.22.22,0,0,1,.13-.28h0a.23.23,0,0,1,.28.14l.17.51A.22.22,0,0,1,66,27.72Z"/><path class="cls-2" d="M65.16,28h0a.23.23,0,0,1-.28-.14l-.17-.51a.22.22,0,0,1,.14-.27h0a.21.21,0,0,1,.27.13l.17.51A.22.22,0,0,1,65.16,28Z"/><path class="cls-2" d="M64.31,28.29h0a.22.22,0,0,1-.28-.14l-.17-.51a.23.23,0,0,1,.14-.27h0a.21.21,0,0,1,.27.14l.17.51A.21.21,0,0,1,64.31,28.29Z"/><path class="cls-2" d="M63.46,28.57h0a.22.22,0,0,1-.28-.13L63,27.93a.22.22,0,0,1,.14-.28h0a.23.23,0,0,1,.27.14l.17.51A.21.21,0,0,1,63.46,28.57Z"/><path class="cls-2" d="M62.6,28.86h0a.22.22,0,0,1-.27-.14l-.17-.51a.21.21,0,0,1,.14-.27h0a.21.21,0,0,1,.27.13l.17.51A.22.22,0,0,1,62.6,28.86Z"/><path class="cls-2" d="M61.75,29.14h0a.21.21,0,0,1-.27-.14l-.17-.51a.21.21,0,0,1,.14-.27h0a.21.21,0,0,1,.27.14l.17.51A.21.21,0,0,1,61.75,29.14Z"/><path class="cls-2" d="M60.9,29.42h0a.21.21,0,0,1-.27-.13l-.17-.51a.22.22,0,0,1,.13-.28h0a.23.23,0,0,1,.28.14l.17.51A.21.21,0,0,1,60.9,29.42Z"/><path class="cls-2" d="M60.05,29.71h0a.21.21,0,0,1-.27-.14l-.17-.51a.21.21,0,0,1,.13-.27h0a.22.22,0,0,1,.28.13l.17.51A.23.23,0,0,1,60.05,29.71Z"/><path class="cls-2" d="M59.2,30h0a.21.21,0,0,1-.27-.14l-.17-.51a.21.21,0,0,1,.13-.27h0a.22.22,0,0,1,.28.14l.17.51A.23.23,0,0,1,59.2,30Z"/><path class="cls-2" d="M58.35,30.27h0a.22.22,0,0,1-.28-.13l-.17-.51a.23.23,0,0,1,.14-.28h0a.24.24,0,0,1,.28.14l.16.51A.21.21,0,0,1,58.35,30.27Z"/><path class="cls-2" d="M57.5,30.56h0a.22.22,0,0,1-.28-.14l-.17-.51a.22.22,0,0,1,.14-.27h0a.21.21,0,0,1,.27.13l.17.51A.22.22,0,0,1,57.5,30.56Z"/><path class="cls-2" d="M56.65,30.84h0a.22.22,0,0,1-.28-.14l-.17-.51a.22.22,0,0,1,.14-.27h0a.21.21,0,0,1,.27.14l.17.51A.21.21,0,0,1,56.65,30.84Z"/><path class="cls-2" d="M55.79,31.12h0a.21.21,0,0,1-.27-.13l-.17-.51a.22.22,0,0,1,.14-.28h0a.23.23,0,0,1,.27.14l.17.51A.21.21,0,0,1,55.79,31.12Z"/><path class="cls-2" d="M54.94,31.41h0a.22.22,0,0,1-.27-.14l-.17-.51a.21.21,0,0,1,.14-.27h0a.21.21,0,0,1,.27.13l.17.51A.22.22,0,0,1,54.94,31.41Z"/><path class="cls-2" d="M54.09,31.69h0a.21.21,0,0,1-.27-.14L53.65,31a.21.21,0,0,1,.14-.27h0a.21.21,0,0,1,.27.14l.17.51A.22.22,0,0,1,54.09,31.69Z"/><path class="cls-2" d="M53.24,32h0a.21.21,0,0,1-.27-.13l-.17-.51a.22.22,0,0,1,.13-.28h0a.23.23,0,0,1,.28.14l.17.51A.21.21,0,0,1,53.24,32Z"/><path class="cls-2" d="M52.39,32.26h0a.21.21,0,0,1-.27-.14L52,31.61a.21.21,0,0,1,.13-.27h0a.22.22,0,0,1,.28.13l.17.51A.23.23,0,0,1,52.39,32.26Z"/><path class="cls-2" d="M51.54,32.54h0a.22.22,0,0,1-.28-.14l-.17-.51a.23.23,0,0,1,.14-.27h0a.22.22,0,0,1,.28.14l.17.51A.23.23,0,0,1,51.54,32.54Z"/><path class="cls-2" d="M50.69,32.82h0a.22.22,0,0,1-.28-.13l-.17-.51a.24.24,0,0,1,.14-.28h0a.22.22,0,0,1,.27.14l.17.51A.21.21,0,0,1,50.69,32.82Z"/><path class="cls-2" d="M49.84,33.11h0a.22.22,0,0,1-.28-.14l-.17-.51a.22.22,0,0,1,.14-.27h0a.21.21,0,0,1,.27.13l.17.51A.22.22,0,0,1,49.84,33.11Z"/><path class="cls-2" d="M49,33.39h0a.21.21,0,0,1-.27-.14l-.17-.51a.22.22,0,0,1,.14-.27h0a.22.22,0,0,1,.27.14l.17.51A.21.21,0,0,1,49,33.39Z"/><path class="cls-2" d="M48.13,33.67h0a.21.21,0,0,1-.27-.13L47.69,33a.22.22,0,0,1,.14-.28h0a.23.23,0,0,1,.27.14l.17.51A.21.21,0,0,1,48.13,33.67Z"/><path class="cls-2" d="M47.28,34h0a.22.22,0,0,1-.27-.14l-.17-.51A.21.21,0,0,1,47,33h0a.21.21,0,0,1,.27.13l.17.51A.22.22,0,0,1,47.28,34Z"/><path class="cls-2" d="M46.43,34.24h0a.21.21,0,0,1-.27-.14L46,33.59a.21.21,0,0,1,.13-.27h0a.22.22,0,0,1,.28.14l.17.51A.22.22,0,0,1,46.43,34.24Z"/><path class="cls-2" d="M45.58,34.53h0a.22.22,0,0,1-.27-.14l-.17-.51a.22.22,0,0,1,.13-.28h0a.23.23,0,0,1,.28.14l.17.51A.24.24,0,0,1,45.58,34.53Z"/><path class="cls-2" d="M44.73,34.81h0a.23.23,0,0,1-.28-.14l-.16-.51a.21.21,0,0,1,.13-.27h0a.22.22,0,0,1,.28.13l.17.51A.23.23,0,0,1,44.73,34.81Z"/><path class="cls-2" d="M43.88,35.09h0A.22.22,0,0,1,43.6,35l-.17-.5a.23.23,0,0,1,.14-.28h0a.21.21,0,0,1,.27.14l.17.51A.21.21,0,0,1,43.88,35.09Z"/><path class="cls-2" d="M43,35.38h0a.23.23,0,0,1-.28-.14l-.17-.51a.24.24,0,0,1,.14-.28h0a.22.22,0,0,1,.27.14l.17.51A.22.22,0,0,1,43,35.38Z"/><path class="cls-2" d="M42.18,35.66h0a.22.22,0,0,1-.28-.14L41.73,35a.22.22,0,0,1,.14-.27h0a.21.21,0,0,1,.27.14l.17.5A.22.22,0,0,1,42.18,35.66Z"/><path class="cls-2" d="M41.32,35.94h0a.21.21,0,0,1-.27-.13l-.17-.51A.22.22,0,0,1,41,35h0a.22.22,0,0,1,.27.14l.17.51A.21.21,0,0,1,41.32,35.94Z"/><path class="cls-2" d="M40.47,36.23h0a.23.23,0,0,1-.27-.14L40,35.58a.22.22,0,0,1,.14-.28h0a.23.23,0,0,1,.27.14l.17.51A.22.22,0,0,1,40.47,36.23Z"/><path class="cls-2" d="M39.62,36.51h0a.22.22,0,0,1-.27-.14l-.17-.51a.21.21,0,0,1,.13-.27h0a.22.22,0,0,1,.28.14l.17.51A.22.22,0,0,1,39.62,36.51Z"/><path class="cls-2" d="M38.77,36.79h0a.21.21,0,0,1-.27-.13l-.17-.51a.22.22,0,0,1,.13-.28h0a.22.22,0,0,1,.28.14l.17.51A.23.23,0,0,1,38.77,36.79Z"/><path class="cls-2" d="M37.92,37.08h0a.22.22,0,0,1-.27-.14l-.17-.51a.21.21,0,0,1,.13-.27h0a.22.22,0,0,1,.28.13l.17.51A.24.24,0,0,1,37.92,37.08Z"/><path class="cls-2" d="M37.07,37.36h0a.22.22,0,0,1-.28-.14l-.17-.51a.23.23,0,0,1,.14-.27h0a.22.22,0,0,1,.28.14l.16.51A.21.21,0,0,1,37.07,37.36Z"/><path class="cls-2" d="M36.22,37.64h0a.22.22,0,0,1-.28-.13L35.77,37a.23.23,0,0,1,.14-.28h0a.21.21,0,0,1,.27.14l.17.51A.21.21,0,0,1,36.22,37.64Z"/><path class="cls-2" d="M35.37,37.93h0a.23.23,0,0,1-.28-.14l-.17-.51a.21.21,0,0,1,.14-.27h0a.21.21,0,0,1,.27.13l.17.51A.22.22,0,0,1,35.37,37.93Z"/><path class="cls-2" d="M34.51,38.21h0a.21.21,0,0,1-.27-.14l-.17-.51a.21.21,0,0,1,.14-.27h0a.21.21,0,0,1,.27.14l.17.51A.21.21,0,0,1,34.51,38.21Z"/><path class="cls-2" d="M33.66,38.49h0a.21.21,0,0,1-.27-.13l-.17-.51a.22.22,0,0,1,.14-.28h0a.22.22,0,0,1,.27.14l.17.51A.21.21,0,0,1,33.66,38.49Z"/><path class="cls-2" d="M86.33,17.52,84.22,17a.9.9,0,0,1-.08.87,16.23,16.23,0,0,1-2,1.81c-.51.38-1,.73-1.34,1a.68.68,0,0,0-.27.77v0A1,1,0,0,0,82,22l1-.68h0l0,0h0a18.35,18.35,0,0,0,3.17-2.81A1,1,0,0,0,86.33,17.52Z"/><polygon class="cls-2" points="23.66 40.95 14.08 49.19 12.52 49.53 14.1 49.35 24.21 41.11 23.66 40.95"/><path class="cls-2" d="M27.92,36,11.15,29.17,7.91,30l3.23-.46,16.54,7.12a.31.31,0,0,0,.4-.16h0A.31.31,0,0,0,27.92,36Z"/><path class="cls-2" d="M83.89,17a19.45,19.45,0,0,0-6.67.4C70.84,18.71,28.38,36.1,28.38,36.1S54.8,26.75,63.9,23.39c7.56-2.79,13.59-5,19.08-4.71a3.51,3.51,0,0,0,1-1A.63.63,0,0,0,83.89,17Z"/><path class="cls-2" d="M88,18.32a6.36,6.36,0,0,0-1.31-.64,1.13,1.13,0,0,1-.19.95,4,4,0,0,1-.41.46l.6.16c1.42.48,2,.94,2,1.65A1.89,1.89,0,0,0,88,18.32Z"/><polygon class="cls-2" points="63.1 3.31 61.95 22.19 63.04 21.78 63.1 3.31"/><polygon class="cls-2" points="60.7 31.97 30.4 58.19 57.85 32.86 60.7 31.97"/><polygon class="cls-2" points="25.64 29.68 23.98 30.41 25.51 29.91 25.23 34.76 26.02 35.09 25.64 29.68"/></svg>